#!OML:ASF G:\JayActor3\Patient Classification 1\Patient 1\Session 5\male.ASF
:FULLY-SPECIFIED
:DEGREES
404
root 29.1461 16.4907 -4.59011 151.973 -83.8404 -153.276
lowerback -2.82954 0.509889 3.95596
upperback 0.952034 0.537769 -0.438613
thorax 2.60898 0.336071 -2.64354
lowerneck -6.2375 0.197711 2.34702
upperneck 2.95195 -0.0399126 2.01245
head 1.99002 0.0546786 0.232461
rclavicle 1.61202e-014 6.75868e-015
rhumerus -34.092 -7.5927 -85.8435
rradius 25.3748
rwrist 5.10064
rhand -18.8108 -8.57314
rfingers 7.12502
rthumb 7.48774 -38.4206
lclavicle 1.61202e-014 6.75868e-015
lhumerus -36.006 8.71364 80.9871
lradius 22.5628
lwrist 14.1361
lhand -16.3193 14.4758
lfingers 7.12502
lthumb 9.89211 44.2234
rfemur 5.16046 -2.32796 23.2045
rtibia 51.2845
rfoot 14.2137 -11.6073
rtoes 10.5029
lfemur -16.8582 10.2627 -22.4026
ltibia 23.8322
lfoot -10.8339 3.16177
ltoes -2.51932
405
root 29.013 16.4964 -4.59065 155.779 -83.9328 -157.17
lowerback -2.64432 0.482441 3.41759
upperback 0.959985 0.530779 -0.513466
thorax 2.50699 0.322906 -2.41968
lowerneck -6.20176 0.238054 2.37785
upperneck 2.83323 0.0168131 1.97982
head 1.94465 0.0803122 0.218664
rclavicle -2.54382e-015 -8.74653e-015
rhumerus -34.0392 -7.46881 -85.8408
rradius 25.4294
rwrist 5.11133
rhand -18.8726 -8.65087
rfingers 7.12502
rthumb 7.42814 -38.5005
lclavicle -2.54382e-015 -8.74653e-015
lhumerus -35.9101 8.38397 81.2032
lradius 22.9935
lwrist 14.5009
lhand -16.4018 14.4534
lfingers 7.12502
lthumb 9.81255 44.2048
rfemur 3.70426 -2.14519 22.6663
rtibia 53.6351
rfoot 15.8821 -12.8094
rtoes 11.2713
lfemur -16.1229 10.29 -22.7978
ltibia 23.5716
lfoot -10.8449 3.12503
ltoes -1.57742
406
root 28.8806 16.5007 -4.59091 159.489 -84.0014 -160.975
lowerback -2.45972 0.450358 2.91162
upperback 0.972109 0.513692 -0.58896
thorax 2.40973 0.305663 -2.21508
lowerneck -6.1509 0.281069 2.40679
upperneck 2.70144 0.0778589 1.95017
head 1.89242 0.107848 0.206209
rclavicle -3.59055e-015 3.57812e-015
rhumerus -33.9606 -7.38534 -85.8327
rradius 25.4603
rwrist 5.15562
rhand -18.9599 -8.71373
rfingers 7.12502
rthumb 7.34381 -38.5663
lclavicle -3.59055e-015 3.57812e-015
lhumerus -35.8158 8.03283 81.4144
lradius 23.4433
lwrist 14.8452
lhand -16.4762 14.392
lfingers 7.12502
lthumb 9.74075 44.1467
rfemur 2.26829 -1.96753 22.151
rtibia 55.8656
rfoot 17.1104 -13.7659
rtoes 11.4806
lfemur -15.4013 10.3906 -23.1783
ltibia 23.3432
lfoot -10.881 3.02255
ltoes -0.702066
407
root 28.7485 16.5034 -4.59082 163.007 -84.0495 -164.594
lowerback -2.27889 0.413919 2.44759
upperback 0.987172 0.486796 -0.665015
thorax 2.31794 0.28454 -2.03491
lowerneck -6.08401 0.328776 2.43642
upperneck 2.55992 0.145496 1.92687
head 1.83431 0.138562 0.195781
rclavicle 9.77772e-015 -1.98785e-015
rhumerus -33.8673 -7.35428 -85.8179
rradius 25.4736
rwrist 5.21773
rhand -19.0652 -8.75057
rfingers 7.12502
rthumb 7.24219 -38.6066
lclavicle 9.77772e-015 -1.98785e-015
lhumerus -35.7262 7.6522 81.6214
lradius 23.913
lwrist 15.1736
lhand -16.5433 14.3316
lfingers 7.12502
lthumb 9.67602 44.0893
rfemur 0.863714 -1.79853 21.6651
rtibia 57.9706
rfoot 17.794 -14.3226
rtoes 11.1748
lfemur -14.6946 10.5406 -23.5347
ltibia 23.1539
lfoot -10.9399 2.87759
ltoes 0.10625
408
root 28.6169 16.5048 -4.59064 166.126 -84.0714 -167.812
lowerback -2.10742 0.376147 2.04426
upperback 1.00229 0.453714 -0.733304
thorax 2.23217 0.261468 -1.88091
lowerneck -6.01205 0.374965 2.46862
upperneck 2.42683 0.211161 1.89779
head 1.77821 0.168313 0.183001
rclavicle 2.38728e-014 -3.97569e-016
rhumerus -33.7659 -7.37665 -85.792
rradius 25.4785
rwrist 5.28298
rhand -19.1798 -8.7623
rfingers 7.12502
rthumb 7.13161 -38.6221
lclavicle 2.38728e-014 -3.97569e-016
lhumerus -35.6428 7.24664 81.8258
lradius 24.3968
lwrist 15.4846
lhand -16.6179 14.2605
lfingers 7.12502
lthumb 9.60403 44.0216
rfemur -0.515346 -1.63103 21.2404
rtibia 59.9512
rfoot 17.8163 -14.4051
rtoes 10.2056
lfemur -14.01 10.7081 -23.8406
ltibia 23.0027
lfoot -11.0198 2.72624
ltoes 0.84178
409
root 28.4859 16.5052 -4.59073 168.795 -84.0782 -170.576
lowerback -1.94902 0.333813 1.69701
upperback 1.01903 0.41076 -0.791727
thorax 2.15585 0.23451 -1.74841
lowerneck -5.93211 0.42353 2.50319
upperneck 2.29861 0.280142 1.86511
head 1.72247 0.199715 0.168752
rclavicle 2.18943e-014 -5.96354e-015
rhumerus -33.6574 -7.44099 -85.7615
rradius 25.4823
rwrist 5.3361
rhand -19.2873 -8.76067
rfingers 7.12502
rthumb 7.02784 -38.624
lclavicle 2.18943e-014 -5.96354e-015
lhumerus -35.5609 6.83169 82.0225
lradius 24.8891
lwrist 15.7754
lhand -16.6963 14.203
lfingers 7.12502
lthumb 9.52836 43.9675
rfemur -1.87127 -1.4667 20.8857
rtibia 61.8102
rfoot 17.1867 -14.0301
rtoes 8.6528
lfemur -13.3451 10.8574 -24.0899
ltibia 22.8904
lfoot -11.1351 2.58378
ltoes 1.57864
410
root 28.3562 16.5051 -4.59112 170.99 -84.079 -172.861
lowerback -1.80615 0.287119 1.4054
upperback 1.04169 0.358725 -0.839471
thorax 2.0948 0.204055 -1.63625
lowerneck -5.85582 0.473005 2.53675
upperneck 2.17745 0.350048 1.83376
head 1.66987 0.231744 0.155103
rclavicle 2.31087e-015 -1.03368e-014
rhumerus -33.5358 -7.53829 -85.7316
rradius 25.4906
rwrist 5.35566
rhand -19.39 -8.74604
rfingers 7.12502
rthumb 6.92867 -38.6126
lclavicle 2.31087e-015 -1.03368e-014
lhumerus -35.465 6.41013 82.2153
lradius 25.3843
lwrist 16.0415
lhand -16.7917 14.2038
lfingers 7.12502
lthumb 9.43629 43.9725
rfemur -3.21255 -1.30128 20.6081
rtibia 63.5503
rfoot 15.9983 -13.3919
rtoes 7.05413
lfemur -12.7028 10.9738 -24.2826
ltibia 22.8125
lfoot -11.2903 2.465
ltoes 2.26648
411
root 28.228 16.5048 -4.59189 172.631 -84.0775 -174.579
lowerback -1.68661 0.236112 1.17762
upperback 1.07427 0.297892 -0.873531
thorax 2.05754 0.170348 -1.54591
lowerneck -5.79313 0.524445 2.56672
upperneck 2.06665 0.422034 1.8041
head 1.62321 0.265064 0.14266
rclavicle 3.29548e-015 5.1684e-015
rhumerus -33.3928 -7.65564 -85.7079
rradius 25.5092
rwrist 5.33922
rhand -19.4648 -8.72008
rfingers 7.12502
rthumb 6.85649 -38.5891
lclavicle 3.29548e-015 5.1684e-015
lhumerus -35.3386 5.99504 82.4004
lradius 25.8696
lwrist 16.2891
lhand -16.9039 14.2458
lfingers 7.12502
lthumb 9.32811 44.0194
rfemur -4.55062 -1.12429 20.4238
rtibia 65.1683
rfoot 14.4202 -12.7051
rtoes 5.79597
lfemur -12.0871 11.0494 -24.4105
ltibia 22.7629
lfoot -11.4916 2.37451
ltoes 2.87806
412
root 28.1014 16.5044 -4.59291 173.804 -84.0864 -175.819
lowerback -1.5906 0.178542 1.00317
upperback 1.12034 0.226072 -0.896263
thorax 2.0476 0.132106 -1.474
lowerneck -5.75523 0.577736 2.59082
upperneck 1.97 0.495471 1.77924
head 1.58563 0.299514 0.132809
rclavicle -1.42224e-014 7.55382e-015
rhumerus -33.224 -7.77194 -85.6989
rradius 25.5436
rwrist 5.26961
rhand -19.5076 -8.69863
rfingers 7.12502
rthumb 6.81516 -38.5689
lclavicle -1.42224e-014 7.55382e-015
lhumerus -35.1707 5.60167 82.5714
lradius 26.3357
lwrist 16.5166
lhand -17.009 14.322
lfingers 7.12502
lthumb 9.2267 44.1002
rfemur -5.886 -0.935712 20.3198
rtibia 66.6551
rfoot 12.5453 -12.1409
rtoes 4.79633
lfemur -11.4927 11.09 -24.4857
ltibia 22.7325
lfoot -11.7445 2.29934
ltoes 3.43719
413
root 27.9761 16.5039 -4.59385 174.613 -84.1099 -176.691
lowerback -1.51063 0.11695 0.87629
upperback 1.18053 0.147231 -0.912031
thorax 2.06148 0.0911591 -1.42172
lowerneck -5.73406 0.629811 2.61154
upperneck 1.87889 0.566601 1.7578
head 1.55288 0.333017 0.124545
rclavicle 9.22951e-015 -7.55382e-015
rhumerus -33.038 -7.88159 -85.7057
rradius 25.6027
rwrist 5.13989
rhand -19.509 -8.68763
rfingers 7.12502
rthumb 6.8138 -38.558
lclavicle 9.22951e-015 -7.55382e-015
lhumerus -34.9606 5.23014 82.7265
lradius 26.7746
lwrist 16.7273
lhand -17.0969 14.3961
lfingers 7.12502
lthumb 9.14185 44.178
rfemur -7.20934 -0.728361 20.2793
rtibia 68.0008
rfoot 10.5439 -11.7466
rtoes 4.13282
lfemur -10.9121 11.1128 -24.5236
ltibia 22.7156
lfoot -12.0398 2.24297
ltoes 3.75635
